<svg xmlns="http://www.w3.org/2000/svg" width="512" height="512" viewBox="0 0 512 512" version="1.1"><path d="M 155.571 188.571 C 153.639 190.504, 153.528 194.363, 155.361 195.885 C 158.990 198.897, 292.370 196.734, 293.456 193.645 C 294.320 191.189, 294.133 190.527, 292.119 188.895 C 288.810 186.216, 158.237 185.906, 155.571 188.571 M 333.655 188.829 C 331.644 191.051, 331.511 194.350, 333.372 195.894 C 336.913 198.833, 390.360 196.764, 391.456 193.645 C 393.772 187.058, 339.361 182.524, 333.655 188.829 M 133.571 252.571 C 132.707 253.436, 132 254.979, 132 256 C 132 261.134, 130.192 261, 199.500 261 C 268.808 261, 267 261.134, 267 256 C 267 250.866, 268.808 251, 199.500 251 C 142.327 251, 134.967 251.175, 133.571 252.571 M 303.571 252.571 C 302.707 253.436, 302 254.979, 302 256 C 302 260.987, 302.118 261, 347 261 C 391.882 261, 392 260.987, 392 256 C 392 251.013, 391.882 251, 347 251 C 310.281 251, 304.950 251.193, 303.571 252.571 M 133.204 316.196 C 131.433 317.967, 131.738 321.453, 133.829 323.345 C 136.873 326.100, 386.709 325.866, 390.119 323.105 C 392.134 321.473, 392.320 320.812, 391.456 318.355 C 390.349 315.208, 136.315 313.085, 133.204 316.196" stroke="none" fill="#f5fafc" fill-rule="evenodd"/><path d="M 234 61.108 C 93.473 77.012, 17.722 236.874, 94.180 356.179 C 110.982 382.396, 106.125 409.785, 80.005 436.117 C 56.012 460.304, 120.050 456.607, 171.279 430.848 C 177.057 427.942, 177.057 427.942, 194.279 432.876 C 262.619 452.456, 311.838 446.326, 363.234 411.832 C 529.031 300.558, 432.521 38.641, 234 61.108 M 155.571 188.571 C 153.639 190.504, 153.528 194.363, 155.361 195.885 C 158.990 198.897, 292.370 196.734, 293.456 193.645 C 294.320 191.189, 294.133 190.527, 292.119 188.895 C 288.810 186.216, 158.237 185.906, 155.571 188.571 M 333.655 188.829 C 331.644 191.051, 331.511 194.350, 333.372 195.894 C 336.913 198.833, 390.360 196.764, 391.456 193.645 C 393.772 187.058, 339.361 182.524, 333.655 188.829 M 133.571 252.571 C 132.707 253.436, 132 254.979, 132 256 C 132 261.134, 130.192 261, 199.500 261 C 268.808 261, 267 261.134, 267 256 C 267 250.866, 268.808 251, 199.500 251 C 142.327 251, 134.967 251.175, 133.571 252.571 M 303.571 252.571 C 302.707 253.436, 302 254.979, 302 256 C 302 260.987, 302.118 261, 347 261 C 391.882 261, 392 260.987, 392 256 C 392 251.013, 391.882 251, 347 251 C 310.281 251, 304.950 251.193, 303.571 252.571 M 133.204 316.196 C 131.433 317.967, 131.738 321.453, 133.829 323.345 C 136.873 326.100, 386.709 325.866, 390.119 323.105 C 392.134 321.473, 392.320 320.812, 391.456 318.355 C 390.349 315.208, 136.315 313.085, 133.204 316.196" stroke="none" fill="#04b4fc" fill-rule="evenodd"/></svg>